<?xml version="1.0" encoding="utf-8"?>
<!-- Generator: Adobe Illustrator 24.3.0, SVG Export Plug-In . SVG Version: 6.00 Build 0)  -->
<svg version="1.1" id="Layer_1" xmlns="http://www.w3.org/2000/svg" xmlns:xlink="http://www.w3.org/1999/xlink" x="0px" y="0px"
	 viewBox="0 0 91.8 91.8" style="enable-background:new 0 0 91.8 91.8;" xml:space="preserve">
<path d="M46.5,50.8c-2.6-0.8-6.1-1.2-7.3-2.5c-1.1-1.2-0.6-2.2-1.8-3.6c-1.8-1-2.8-0.2-4.4-0.9c-2.2-1-2.5-4-4.6-4.6
	c-2-0.5-5.1,0.8-6.4-1.1c-0.1-0.2-1.1,0.1-1.7,0c-0.5,1.8-3.3,1.3-4.6,2.4c-0.4,1.4,1.1,2.2,0.9,4c-0.2,1.6-2.2,2.8-2.4,4.7
	c-0.2,2.1,1.2,4.5,2.2,6.6c0.9,1.7,0.9,5.3,2.2,6.6c1.5,1.5,2.9,0.4,4,1.6c1,1.1,0.5,3.9,0.7,6.2c0.2,2,1.1,4,2.2,6.2
	c1,2.1,1.9,4.7,2.8,5.8c0.6,0.8,3.4,3.4,5.1,2.9c2.7-0.8,0.1-6.9,1.3-8.9c1.7-1,2.6-1,3.7-2.4c1.4-1.8,1.2-5.7,3.9-6.4
	c0.9-0.2,2.2,0.3,3.3,0c3.1-0.9,2.2-6.2,3.7-9.1c0.7-1.3,3.4-2.1,3.3-3.8C52.5,52.8,48.6,51.4,46.5,50.8z"/>
<path d="M90.9,42.8c-0.3-6.8-2.4-12.5-5-17.5C78.8,11.5,64.4-0.5,42.7,1.1C35.9,1.6,29.9,3.4,24.9,6c-5.1,2.7-9.1,6.2-12.5,10
	c-7,7.9-12.1,18.1-11.4,33.1c0.6,13.1,7,23.3,14.7,30.2c7.8,7,19.8,12.4,33.6,11.5c13.3-0.9,23.1-7.1,30.1-14.7
	C86.7,68,91.5,57.5,90.9,42.8z M82.3,59.7c-0.9,2.2-4.9,2.8-4.8,6c0,0.9,1.1,1.8,1.1,2.5c0.1,2-3.2,3.9-2.2,7.5
	c-8,7.5-17.6,13.9-33.8,12.9C17.4,87.1-1.7,63.7,4.2,35.5c4.4,1.2,6.2,5,10.1,6.7c-0.4-2.9-1.5-6.9-0.4-11.1c-0.3-0.5-2-0.5-2.6-0.2
	c0.2-3,2.9-5,5.3-6.4c4.4,3.1,5.5-3.3,8.4-5.5c0.8-0.6,2-0.9,2.9-1.5c1.8-1,2.8-2.7,3.9-3.1c2.7-0.9,7.2,0.8,7.5-1.8
	c0.2-1.4-2.8-4.7-4-4.9c-3.2-0.6-4.3,3.1-6.8,2.5c-0.8-0.2-0.3-2-0.2-2.5c2.5-2,9.6-0.4,9.5-4.4c1.3-0.2,3.2-0.8,4.6-0.4
	c-1,2.2-1.5,3.5,0.4,5.3c0.2,0.2,0.6,0,0.7,0.2C44.1,9,44,9.7,44.9,9.8c2.2,0.3,1.8-2.3,3.3-3.3c1-0.4,2.9,0.1,3.7-0.5
	c0.6-0.8-0.2-2.3,0.2-2.9c5.2,0.8,9.5,2.4,13.6,4.4c-1.8,0.2-2.7,2.5-1.1,3.6c-3.3,1.9-2.6,4.1,0,6.4c1,0.9,2,2.6,3.5,2.2
	c1.8-0.5,0.8-4.2,2.9-4.7c4.7-0.6,4.6,3.7,8.4,4c0.7,1.2,1.9,2,2.2,3.6c-0.5,0.1-2-0.5-2.9,0c-1.4-1.2-1.9-3.4-3.9-3.6
	c-1.2-0.1-1.7,0.7-2.8,1.1c-0.9,0.3-2.2,0.2-2.9,0.7c-1.4,1-0.6,3-1.1,4.7c-0.6,2.3-3.6,2.6-3.9,4.4c0.2,2.7-0.2,5.2,1.1,7.5
	c0.8,1.5,3,1.9,3.9,2.9c1.3,1.5,1.3,5.3,2.9,6c3,1.3,4.7-2.3,7.2-2.9c1.6,1.8,3.9,4.4,4,7.5c0.1,1.2-0.6,2.8-0.7,4.6
	C82.4,56.8,82.8,58.6,82.3,59.7z"/>
</svg>
